<svg width="40" height="40" viewBox="0 0 40 40" fill="none" xmlns="http://www.w3.org/2000/svg">
<path fill-rule="evenodd" clip-rule="evenodd" d="M3.33301 11.057C3.33301 6.79134 6.79097 3.33337 11.0566 3.33337C15.3222 3.33337 18.7802 6.79134 18.7802 11.057C18.7802 15.3226 15.3222 18.7805 11.0566 18.7805C6.79097 18.7805 3.33301 15.3226 3.33301 11.057Z" fill="#471EEE"/>
<path opacity="0.5" fill-rule="evenodd" clip-rule="evenodd" d="M21.2197 28.9431C21.2197 24.6774 24.6777 21.2195 28.9433 21.2195C33.2089 21.2195 36.6669 24.6774 36.6669 28.9431C36.6669 33.2087 33.2089 36.6666 28.9433 36.6666C24.6777 36.6666 21.2197 33.2087 21.2197 28.9431Z" fill="#471EEE"/>
<path d="M3.33301 29.1666C3.33301 25.6311 3.33301 23.8633 4.43136 22.765C5.52971 21.6666 7.29747 21.6666 10.833 21.6666C14.3685 21.6666 16.1363 21.6666 17.2347 22.765C18.333 23.8633 18.333 25.6311 18.333 29.1666C18.333 32.7022 18.333 34.4699 17.2347 35.5683C16.1363 36.6666 14.3685 36.6666 10.833 36.6666C7.29747 36.6666 5.52971 36.6666 4.43136 35.5683C3.33301 34.4699 3.33301 32.7022 3.33301 29.1666Z" fill="#471EEE"/>
<path opacity="0.5" d="M21.667 10.8334C21.667 7.29784 21.667 5.53007 22.7653 4.43172C23.8637 3.33337 25.6315 3.33337 29.167 3.33337C32.7025 3.33337 34.4703 3.33337 35.5686 4.43172C36.667 5.53007 36.667 7.29784 36.667 10.8334C36.667 14.3689 36.667 16.1367 35.5686 17.235C34.4703 18.3334 32.7025 18.3334 29.167 18.3334C25.6315 18.3334 23.8637 18.3334 22.7653 17.235C21.667 16.1367 21.667 14.3689 21.667 10.8334Z" fill="#471EEE"/>
</svg>
