<svg width="40" height="40" viewBox="0 0 40 40" fill="none" xmlns="http://www.w3.org/2000/svg">
<path fill-rule="evenodd" clip-rule="evenodd" d="M8.46447 8.44831C14.79 2.13168 25.0728 2.19884 31.437 8.56308C37.804 14.9301 37.8685 25.2189 31.5436 31.5438C25.2187 37.8686 14.9299 37.8042 8.56289 31.4372C4.78981 27.6641 3.23173 22.5166 3.90078 17.6355C3.99453 16.9515 4.62499 16.4731 5.30895 16.5668C5.99291 16.6606 6.47137 17.291 6.37762 17.975C5.811 22.1088 7.1297 26.4685 10.3307 29.6694C15.7381 35.0769 24.444 35.1079 29.7758 29.776C35.1077 24.4442 35.0767 15.7383 29.6692 10.3308C24.2645 4.92615 15.5648 4.89244 10.2322 10.2161L11.4784 10.2223C12.1688 10.2258 12.7256 10.7883 12.7221 11.4786C12.7186 12.1689 12.1562 12.7258 11.4659 12.7223L7.22327 12.701C6.53782 12.6975 5.98301 12.1427 5.97956 11.4573L5.95824 7.21469C5.95477 6.52435 6.5116 5.9619 7.20195 5.95843C7.89229 5.95496 8.45474 6.51178 8.45821 7.20213L8.46447 8.44831Z" fill="#471EEE"/>
<path opacity="0.5" d="M20 12.0834C20.6904 12.0834 21.25 12.643 21.25 13.3334V19.4823L25.0505 23.2828C25.5387 23.771 25.5387 24.5624 25.0505 25.0506C24.5624 25.5387 23.7709 25.5387 23.2828 25.0506L19.2382 21.006C18.9256 20.6934 18.75 20.2695 18.75 19.8275V13.3334C18.75 12.643 19.3096 12.0834 20 12.0834Z" fill="#471EEE"/>
</svg>
