<svg width="40" height="40" viewBox="0 0 40 40" fill="none" xmlns="http://www.w3.org/2000/svg">
<path d="M12.917 11.6666C12.2266 11.6666 11.667 12.2263 11.667 12.9166C11.667 13.607 12.2266 14.1666 12.917 14.1666H18.3337V26.25C18.3337 26.9403 18.8933 27.5 19.5837 27.5C20.274 27.5 20.8337 26.9403 20.8337 26.25V14.1666H26.2503C26.9407 14.1666 27.5003 13.607 27.5003 12.9166C27.5003 12.2263 26.9407 11.6666 26.2503 11.6666H12.917Z" fill="#471EEE"/>
<path d="M33.3333 19.5834C33.3333 18.893 33.893 18.3334 34.5833 18.3334L38.75 18.3334C39.4404 18.3334 40 18.893 40 19.5834C40 20.2737 39.4404 20.8334 38.75 20.8334H34.5833C33.893 20.8334 33.3333 20.2737 33.3333 19.5834Z" fill="#471EEE"/>
<path d="M1.25 18.3334C0.559644 18.3334 0 18.893 0 19.5834C0 20.2737 0.559644 20.8334 1.25 20.8334H5.41667C6.10702 20.8334 6.66667 20.2737 6.66667 19.5834C6.66667 18.893 6.10702 18.3334 5.41667 18.3334H1.25Z" fill="#471EEE"/>
<path opacity="0.5" d="M3.33301 20C3.33301 12.1433 3.33301 8.21493 5.77378 5.77415C8.21456 3.33337 12.1429 3.33337 19.9997 3.33337C27.8564 3.33337 31.7848 3.33337 34.2256 5.77415C36.6663 8.21493 36.6663 12.1433 36.6663 20C36.6663 27.8568 36.6663 31.7852 34.2256 34.2259C31.7848 36.6667 27.8564 36.6667 19.9997 36.6667C12.1429 36.6667 8.21456 36.6667 5.77378 34.2259C3.33301 31.7852 3.33301 27.8568 3.33301 20Z" fill="#471EEE"/>
</svg>
