<svg width="40" height="40" viewBox="0 0 40 40" fill="none" xmlns="http://www.w3.org/2000/svg">
<path d="M26.6663 26.6666L31.6663 26.6674C34.4278 26.667 36.6667 28.9052 36.6671 31.6667C36.6676 34.4281 34.4293 36.667 31.6679 36.6674C28.9065 36.6679 26.6676 34.4296 26.6671 31.6682L26.6663 26.6666Z" fill="#B8B6C0"/>
<path d="M8.3338 26.6674L13.3338 26.6682L13.333 31.6682C13.3326 34.4296 11.0936 36.6679 8.33222 36.6674C5.5708 36.667 3.33257 34.4281 3.33301 31.6667C3.33344 28.9052 5.57237 26.667 8.3338 26.6674Z" fill="#B8B6C0"/>
<path fill-rule="evenodd" clip-rule="evenodd" d="M31.6663 13.3341L26.6663 13.3333L26.6671 8.33332C26.6676 5.5719 28.9065 3.33367 31.6679 3.33411C34.4293 3.33454 36.6676 5.57347 36.6671 8.33489C36.6667 11.0963 34.4278 13.3345 31.6663 13.3341ZM13.3338 13.3333L13.333 8.33332C13.3326 5.5719 11.0936 3.33367 8.33222 3.33411C5.5708 3.33454 3.33257 5.57347 3.33301 8.33489C3.33344 11.0963 5.57237 13.3345 8.3338 13.3341L13.3338 13.3333Z" fill="#B8B6C0"/>
<path opacity="0.5" d="M26.6663 13.3334L13.3338 13.3334L13.333 26.6667H26.6663V13.3334Z" fill="#B8B6C0"/>
</svg>
