<svg width="220" height="164" viewBox="0 0 220 164" fill="none" xmlns="http://www.w3.org/2000/svg">
<path d="M70.174 116.496H11.2346C6.80178 116.496 3.52177 114.567 1.39456 110.71C-0.732653 106.852 -0.426284 103.082 2.31367 99.3978L128.577 -78.3708C130.449 -80.8194 132.787 -82.4988 135.594 -83.409C138.401 -84.319 141.207 -84.1781 144.014 -82.9865C146.82 -81.903 149.042 -80.0827 150.679 -77.5256C152.317 -74.9685 152.901 -72.2382 152.434 -69.3346L137.164 48.8858H208.6C213.433 48.8858 216.841 50.9554 218.824 55.0946C220.806 59.2335 220.283 63.1449 217.254 66.8289L78.1593 229.19C76.288 231.466 73.8767 232.945 70.9254 233.627C67.9741 234.31 65.2399 234.055 62.7229 232.863C60.0945 231.78 58.0618 230.014 56.6249 227.565C55.1883 225.116 54.6483 222.386 55.0048 219.374L70.174 116.496Z" fill="url(#paint0_linear_403_318)"/>
<defs>
<linearGradient id="paint0_linear_403_318" x1="110" y1="-84" x2="110" y2="234" gradientUnits="userSpaceOnUse">
<stop stop-color="#FBFBFF"/>
<stop offset="1" stop-color="#CACAFF" stop-opacity="0"/>
</linearGradient>
</defs>
</svg>
