<svg width="62" height="62" viewBox="0 0 62 62" fill="none" xmlns="http://www.w3.org/2000/svg">
<path d="M49.8584 19.5042C49.6431 19.5042 49.4601 19.4611 49.3094 19.375C49.1587 19.2889 49.0403 19.1382 48.9542 18.9229L47.0813 14.5313L42.3667 12.4646C42.1514 12.3785 42.0007 12.2601 41.9146 12.1094C41.8285 11.9587 41.7855 11.7757 41.7855 11.5604C41.7855 11.3451 41.8285 11.1622 41.9146 11.0115C42.0007 10.8608 42.1514 10.7424 42.3667 10.6563L47.0813 8.65417L48.9542 4.45625C49.0403 4.24097 49.1587 4.09028 49.3094 4.00417C49.4601 3.91806 49.6431 3.875 49.8584 3.875C50.0737 3.875 50.2566 3.91806 50.4073 4.00417C50.558 4.09028 50.6764 4.24097 50.7626 4.45625L52.6355 8.65417L57.35 10.6563C57.5653 10.7424 57.716 10.8608 57.8021 11.0115C57.8882 11.1622 57.9313 11.3451 57.9313 11.5604C57.9313 11.7757 57.8882 11.9587 57.8021 12.1094C57.716 12.2601 57.5653 12.3785 57.35 12.4646L52.6355 14.5313L50.7626 18.9229C50.6764 19.1382 50.558 19.2889 50.4073 19.375C50.2566 19.4611 50.0737 19.5042 49.8584 19.5042ZM49.8584 57.9958C49.6862 57.9958 49.5139 57.9528 49.3417 57.8667C49.1695 57.7806 49.0403 57.6299 48.9542 57.4146L47.0813 53.2167L42.4313 51.2146C42.216 51.1285 42.0653 51.0101 41.9792 50.8594C41.8931 50.7087 41.85 50.5257 41.85 50.3104C41.85 50.0951 41.8931 49.9122 41.9792 49.7615C42.0653 49.6108 42.216 49.4924 42.4313 49.4063L47.0813 47.4042L48.9542 42.9479C49.0403 42.7326 49.1587 42.5819 49.3094 42.4958C49.4601 42.4097 49.6431 42.3667 49.8584 42.3667C50.0737 42.3667 50.2566 42.4097 50.4073 42.4958C50.558 42.5819 50.6764 42.7326 50.7626 42.9479L52.6355 47.4042L57.2855 49.4063C57.5007 49.4924 57.6514 49.6108 57.7375 49.7615C57.8237 49.9122 57.8667 50.0951 57.8667 50.3104C57.8667 50.5257 57.8237 50.7087 57.7375 50.8594C57.6514 51.0101 57.5007 51.1285 57.2855 51.2146L52.6355 53.2167L50.7626 57.4146C50.6764 57.6299 50.5473 57.7806 50.375 57.8667C50.2028 57.9528 50.0306 57.9958 49.8584 57.9958ZM21.5063 46.8229C21.1619 46.8229 20.8282 46.726 20.5053 46.5323C20.1823 46.3385 19.9348 46.0694 19.7625 45.725L15.5646 36.7479L6.52297 32.6792C6.17852 32.5069 5.90942 32.2594 5.71567 31.9365C5.52192 31.6135 5.42505 31.2799 5.42505 30.9354C5.42505 30.591 5.52192 30.2573 5.71567 29.9344C5.90942 29.6115 6.17852 29.3639 6.52297 29.1917L15.5646 25.1229L19.7625 16.2104C19.9348 15.8229 20.1823 15.5323 20.5053 15.3385C20.8282 15.1448 21.1619 15.0479 21.5063 15.0479C21.8507 15.0479 22.1844 15.1448 22.5073 15.3385C22.8303 15.5323 23.0778 15.8014 23.25 16.1458L27.5125 25.1229L36.4896 29.1917C36.8771 29.3639 37.1678 29.6115 37.3615 29.9344C37.5553 30.2573 37.6521 30.591 37.6521 30.9354C37.6521 31.2799 37.5553 31.6135 37.3615 31.9365C37.1678 32.2594 36.8771 32.5069 36.4896 32.6792L27.5125 36.7479L23.25 45.725C23.0778 46.1125 22.8303 46.3924 22.5073 46.5646C22.1844 46.7368 21.8507 46.8229 21.5063 46.8229Z" fill="#4318FF"/>
</svg>
